<?xml version="1.0" encoding="UTF-8"?>
<svg id="Layer_1" data-name="Layer 1" xmlns="http://www.w3.org/2000/svg" viewBox="0 0 259.31 281">
  <defs>
    <style>
      .cls-1 {
        fill: #fff;
      }
    </style>
  </defs>
  <polygon class="cls-1" points="185.68 0 185.68 125.28 142.64 125.28 142.64 43.03 17.2 43.03 17.2 0 185.68 0"/>
  <path class="cls-1" d="M259.31,56.9v224.1h-43.03v-98.98h-32.67c-7.81,35.86-35.22,63.75-71.25,72.04v26.94h-43.03v-27.26c-31.72-7.65-57.38-31.24-67.74-62.32l-1.59-4.46,40.96-13.55,1.43,4.62c1.38,4.21,5.98,16.47,18.73,25.72,2.52,1.83,14.27,10.01,30.2,9.82,19.26-.22,37.35-12.6,47.34-31.56h-26.46v15.3h-43.03V57.22h43.03v81.77l103.92.32V57.22l43.19-.32Z"/>
</svg>