<?xml version="1.0" encoding="UTF-8"?>
<svg id="Layer_1" xmlns="http://www.w3.org/2000/svg" version="1.1" viewBox="0 0 1366 1903">
  <!-- Generator: Adobe Illustrator 29.1.0, SVG Export Plug-In . SVG Version: 2.1.0 Build 142)  -->
  <defs>
    <style>
      .st0 {
        fill: none;
        stroke: #fff;
        stroke-linecap: round;
        stroke-miterlimit: 10;
        stroke-width: 30px;
      }
    </style>
  </defs>
  <path class="st0" d="M215.7-30.2c-249,288-60.4,295.4-28.2,372.5,63.1,151.2-147.2,244.7-59.7,329.6,45.5,41.5,100.6-31.6,181.9-73.6,319.9-165.6,541.4-4,763.8-123.4,112.2-63.3,142.9-192.7,85-296.7-72.9-130.8-341.1-150.4-466.1,30.3-199.2,288,450.1,542.2,379.5,658.3-72.5,119-743.6-233.4-844.5-82.3-41.6,62.2,22.7,196.3,108.3,277.2,270.4,255.6,760.3-13.8,853.2,142.9,73.1,123.4-149.7,426.3-402.8,584.7C461.2,1992.6,112.6,1940.9,0,1919.2"/>
</svg>